HIERARCHY
ROOT Hips
{
 OFFSET 0.000000 0.000000 0.000000
 CHANNELS 6 Xposition Yposition Zposition Yrotation Xrotation Zrotation
 JOINT Chest
 {
  OFFSET 0.000000 9.585900 0.002600
  CHANNELS 3 Yrotation Xrotation Zrotation
  JOINT Chest2
  {
   OFFSET 0.000000 9.601200 -0.005300
   CHANNELS 3 Yrotation Xrotation Zrotation
   JOINT Chest3
   {
    OFFSET 0.000000 9.561800 0.000000
    CHANNELS 3 Yrotation Xrotation Zrotation
    JOINT Chest4
    {
     OFFSET 0.000000 9.552100 0.000000
     CHANNELS 3 Yrotation Xrotation Zrotation
     JOINT Neck
     {
      OFFSET 0.000000 14.453000 0.000000
      CHANNELS 3 Yrotation Xrotation Zrotation
      JOINT Head
      {
       OFFSET 0.000000 8.936500 -0.011300
       CHANNELS 3 Yrotation Xrotation Zrotation
       End Site
       {
        OFFSET 0.000000 17.073600 -0.006000
       }
      }
     }
     JOINT RightCollar
     {
      OFFSET -2.921100 9.558500 0.000000
      CHANNELS 3 Yrotation Xrotation Zrotation
      JOINT RightShoulder
      {
       OFFSET -13.519700 0.000000 0.000000
       CHANNELS 3 Yrotation Xrotation Zrotation
       JOINT RightElbow
       {
        OFFSET 0.000000 -29.696600 0.000000
        CHANNELS 3 Yrotation Xrotation Zrotation
        JOINT RightWrist
        {
         OFFSET 0.000000 -24.004700 0.000000
         CHANNELS 3 Yrotation Xrotation Zrotation
         End Site
         {
          OFFSET 0.000000 -17.728500 0.000000
         }
        }
       }
      }
     }
     JOINT LeftCollar
     {
      OFFSET 2.921100 9.558500 0.000000
      CHANNELS 3 Yrotation Xrotation Zrotation
      JOINT LeftShoulder
      {
       OFFSET 13.519700 0.000000 0.000000
       CHANNELS 3 Yrotation Xrotation Zrotation
       JOINT LeftElbow
       {
        OFFSET 0.000000 -29.696600 0.000000
        CHANNELS 3 Yrotation Xrotation Zrotation
        JOINT LeftWrist
        {
         OFFSET 0.000000 -24.004700 0.000000
         CHANNELS 3 Yrotation Xrotation Zrotation
         End Site
         {
          OFFSET 0.000000 -17.728500 0.000000
         }
        }
       }
      }
     }
    }
   }
  }
 }
 JOINT RightHip
 {
  OFFSET -7.771700 -0.012900 -0.001300
  CHANNELS 3 Yrotation Xrotation Zrotation
  JOINT RightKnee
  {
   OFFSET 0.000000 -40.869800 0.001200
   CHANNELS 3 Yrotation Xrotation Zrotation
   JOINT RightAnkle
   {
    OFFSET 0.000000 -39.717900 0.002100
    CHANNELS 3 Yrotation Xrotation Zrotation
    JOINT RightToe
    {
     OFFSET 0.000000 -4.965400 11.033500
     CHANNELS 3 Yrotation Xrotation Zrotation
     End Site
     {
      OFFSET 0.000000 -1.423100 5.872300
     }
    }
   }
  }
 }
 JOINT LeftHip
 {
  OFFSET 7.771700 -0.012900 -0.001300
  CHANNELS 3 Yrotation Xrotation Zrotation
  JOINT LeftKnee
  {
   OFFSET 0.000000 -40.869800 0.001200
   CHANNELS 3 Yrotation Xrotation Zrotation
   JOINT LeftAnkle
   {
    OFFSET 0.000000 -39.717900 0.002100
    CHANNELS 3 Yrotation Xrotation Zrotation
    JOINT LeftToe
    {
     OFFSET 0.000000 -4.965400 11.033500
     CHANNELS 3 Yrotation Xrotation Zrotation
     End Site
     {
      OFFSET 0.000000 -1.423100 5.872300
     }
    }
   }
  }
 }
}
MOTION
Frames: 5
Frame Time: 0.008333
-19.939434 43.640583 26.248715 178.229263 -24.112654 -1.015532 -1.316187 16.832143 2.044180 -0.136468 1.767303 0.277325 -0.235443 2.883995 0.446255 -0.980824 14.706488 2.188842 -2.359845 14.130522 -2.061066 -2.003627 -10.867165 -1.629593 7.328465 2.712572 -5.223510 -4.956590 -5.535621 -3.941109 -162.779251 -82.866669 -174.166397 0.331347 3.282780 -27.596233 -11.931991 -1.499937 -6.415743 11.321372 -1.495483 5.302689 138.220936 -72.648502 -164.296896 9.973541 19.463051 14.598009 0.070660 -67.445159 6.861347 -151.067334 66.027670 -149.940167 -11.051715 -24.199192 10.528029 0.684193 -0.879435 0.286952 4.893463 -52.045715 -1.733304 179.829150 57.261137 179.411601 -3.841833 -41.146481 4.415751 -0.011766 0.082874 0.011499
-19.943087 43.645426 26.247845 178.222203 -24.091972 -1.015033 -1.299881 16.848779 2.058037 -0.140626 1.749861 0.274236 -0.229919 2.908361 0.454145 -0.973206 14.711422 2.197917 -2.353035 14.136153 -2.040574 -2.017051 -10.909095 -1.639371 7.324950 2.681972 -5.225072 -4.965603 -5.648932 -3.841244 -164.584533 -83.562446 -172.909146 0.218529 3.195293 -27.690756 -11.937195 -1.520238 -6.424312 11.400713 -1.516634 5.126045 138.468593 -73.241094 -164.016969 10.019181 19.440472 14.857652 0.065483 -67.462296 6.863596 -151.073779 66.027145 -149.936538 -11.050652 -24.199503 10.518274 0.706463 -0.888980 0.292526 4.934707 -52.052412 -1.761452 179.814013 57.275870 179.408002 -3.848352 -41.160843 4.428065 -0.011175 0.092732 0.009753
-19.951260 43.648027 26.251407 178.201631 -24.041128 -0.981857 -1.270779 16.880762 2.061528 -0.152564 1.686775 0.256961 -0.221829 2.935135 0.463924 -0.963142 14.718216 2.208218 -2.367644 14.105792 -2.042281 -1.999713 -10.847408 -1.585825 7.317978 2.647189 -5.229016 -4.988001 -5.768129 -3.733605 -166.658802 -84.279723 -171.385916 0.101271 3.145199 -27.790230 -11.945215 -1.545384 -6.432311 11.479455 -1.547436 4.953077 138.539578 -73.841635 -163.577211 10.065530 19.405502 15.184102 0.113179 -67.503479 6.793770 -151.104866 66.043901 -149.967498 -11.018527 -24.236685 10.523276 0.689899 -0.870827 0.268710 5.018172 -52.094365 -1.831220 179.813202 57.292506 179.405133 -3.854261 -41.153578 4.449028 -0.011610 0.090049 0.007461
-19.952923 43.651148 26.254020 178.186079 -23.997355 -0.988346 -1.240735 16.879570 2.093257 -0.141116 1.734434 0.272761 -0.235011 2.881085 0.447346 -0.954490 14.723693 2.216967 -2.360014 14.135389 -2.018032 -2.011201 -10.846569 -1.569312 7.333911 2.642199 -5.206169 -5.029986 -5.903730 -3.636554 -169.304797 -85.008321 -169.304294 -0.000358 3.125803 -27.898491 -11.938452 -1.527185 -6.438139 11.542922 -1.615731 4.782662 138.389519 -74.436738 -162.929614 10.124199 19.388727 15.584132 0.079436 -67.538249 6.800720 -151.107164 66.054009 -149.931465 -10.997955 -24.253748 10.472654 0.690444 -0.873815 0.278328 5.045575 -52.135047 -1.839150 179.797924 57.300391 179.399255 -3.857532 -41.153938 4.454339 -0.012126 0.089677 0.006861
-19.963728 43.652881 26.258758 178.154150 -23.936372 -0.932407 -1.218509 16.838252 2.059002 -0.131601 1.757468 0.283658 -0.247552 2.848873 0.433737 -0.951449 14.725500 2.220109 -2.337284 14.197239 -1.985448 -2.028716 -10.856116 -1.565519 7.366607 2.664321 -5.167150 -5.064213 -6.032452 -3.533934 -173.143614 -85.734252 -166.057871 -0.080332 3.117034 -28.022462 -11.922039 -1.479888 -6.439585 11.605143 -1.693558 4.624053 138.072743 -75.037139 -162.116027 10.215683 19.394493 16.047100 0.188166 -67.587853 6.645236 -151.203961 66.089854 -150.029143 -10.884135 -24.289125 10.456818 0.564406 -0.872613 0.236265 5.153299 -52.183108 -1.935700 179.794043 57.321167 179.388075 -3.868616 -41.149536 4.474647 -0.008745 0.096453 0.008578
